HIERARCHY
ROOT Hips
{
	OFFSET 228.634003 92.561920 -263.051910
	CHANNELS 6 Xposition Yposition Zposition Zrotation Yrotation Xrotation 
	JOINT LeftUpLeg
	{
		OFFSET 0.103458 1.857820 10.548502
		CHANNELS 3 Zrotation Yrotation Xrotation
		JOINT LeftLeg
		{
			OFFSET 43.500000 -0.000023 -0.000011
			CHANNELS 3 Zrotation Yrotation Xrotation
			JOINT LeftFoot
			{
				OFFSET 42.372192 0.000038 0.000002
				CHANNELS 3 Zrotation Yrotation Xrotation
				JOINT LeftToe
				{
					OFFSET 17.299992 -0.000004 0.000006
					CHANNELS 3 Zrotation Yrotation Xrotation
					End Site
					{
						OFFSET 0.000000 0.000000 0.000000
					}
				}
			}
		}
	}
	JOINT RightUpLeg
	{
		OFFSET 0.103461 1.857814 -10.548508
		CHANNELS 3 Zrotation Yrotation Xrotation
		JOINT RightLeg
		{
			OFFSET 43.500042 -0.000015 0.000008
			CHANNELS 3 Zrotation Yrotation Xrotation
			JOINT RightFoot
			{
				OFFSET 42.372253 0.000008 0.000006
				CHANNELS 3 Zrotation Yrotation Xrotation
				JOINT RightToe
				{
					OFFSET 17.299973 -0.000014 0.000011
					CHANNELS 3 Zrotation Yrotation Xrotation
					End Site
					{
						OFFSET 0.000000 0.000000 0.000000
					}
				}
			}
		}
	}
	JOINT Spine
	{
		OFFSET 6.901966 -2.603737 -0.000007
		CHANNELS 3 Zrotation Yrotation Xrotation
		JOINT Spine1
		{
			OFFSET 12.588102 0.000017 0.000001
			CHANNELS 3 Zrotation Yrotation Xrotation
			JOINT Spine2
			{
				OFFSET 12.343197 -0.000013 0.000000
				CHANNELS 3 Zrotation Yrotation Xrotation
				JOINT Neck
				{
					OFFSET 25.832905 -0.000008 0.000000
					CHANNELS 3 Zrotation Yrotation Xrotation
					JOINT Head
					{
						OFFSET 11.766610 0.000009 -0.000002
						CHANNELS 3 Zrotation Yrotation Xrotation
						End Site
						{
							OFFSET 0.000000 0.000000 0.000000
						}
					}
				}
				JOINT LeftShoulder
				{
					OFFSET 19.745903 -1.480377 6.000115
					CHANNELS 3 Zrotation Yrotation Xrotation
					JOINT LeftArm
					{
						OFFSET 11.284125 -0.000014 -0.000024
						CHANNELS 3 Zrotation Yrotation Xrotation
						JOINT LeftForeArm
						{
							OFFSET 33.000046 -0.000012 0.000029
							CHANNELS 3 Zrotation Yrotation Xrotation
							JOINT LeftHand
							{
								OFFSET 25.199989 0.000034 0.000012
								CHANNELS 3 Zrotation Yrotation Xrotation
								End Site
								{
									OFFSET 0.000000 0.000000 0.000000
								}
							}
						}
					}
				}
				JOINT RightShoulder
				{
					OFFSET 19.746098 -1.480362 -6.000071
					CHANNELS 3 Zrotation Yrotation Xrotation
					JOINT RightArm
					{
						OFFSET 11.284137 -0.000006 -0.000008
						CHANNELS 3 Zrotation Yrotation Xrotation
						JOINT RightForeArm
						{
							OFFSET 33.000095 0.000017 0.000000
							CHANNELS 3 Zrotation Yrotation Xrotation
							JOINT RightHand
							{
								OFFSET 25.199778 0.000144 0.000423
								CHANNELS 3 Zrotation Yrotation Xrotation
								End Site
								{
									OFFSET 0.000000 0.000000 0.000000
								}
							}
						}
					}
				}
			}
		}
	}
}
MOTION
Frames: 14
Frame Time: 0.033333
33.119598 43.481800 225.883194 109.943219 -8.835511 95.935526 88.112726 0.460600 159.824009 -116.485803 3.649648 -2.955066 94.410502 1.087289 -6.449816 21.454550 0.003091 -0.000002 164.681885 27.958292 -171.844909 -127.753907 -4.930582 -1.723233 69.550368 1.457425 -0.420200 21.454555 -0.003110 -0.000021 16.498691 -0.322325 2.087965 22.966644 -1.052459 4.070435 22.649370 -1.027750 4.076722 -5.690494 -29.843374 -8.602110 -19.800770 16.646390 -22.228743 86.959783 -86.792826 91.570318 -49.915770 22.621025 8.186598 -97.681848 -3.214573 2.871355 -26.263821 -13.859934 64.208901 104.518171 76.976307 -74.949114 -15.297634 -29.823051 -38.158098 -29.313297 14.448584 -1.207354 8.751795 3.996304 -33.661218 
34.217701 43.730450 226.637695 108.743995 -8.282100 96.597672 88.806844 2.080996 160.100754 -117.049703 3.762229 -3.457172 95.493558 1.514826 -6.221090 21.454555 0.003094 0.000001 166.830540 27.914310 -169.901816 -126.157310 -4.993815 -0.589833 69.418928 0.923535 0.379207 21.454562 -0.003102 -0.000009 16.588311 -0.659770 1.761464 23.141700 -1.658276 3.355657 22.824050 -1.637868 3.365612 -6.478817 -30.671531 -7.556068 -19.936065 17.930396 -22.120964 69.479252 -86.965841 108.984254 -53.754460 22.131194 7.154983 -95.371974 -3.447032 2.784873 -27.329177 -17.080464 62.615677 112.452036 76.555028 -67.032706 -13.825260 -35.487791 -40.695090 -33.695403 14.887984 -1.325527 6.092871 4.246372 -30.747808 
35.256962 44.309971 227.474106 107.720887 -7.918418 96.631344 89.842403 2.373593 159.602410 -117.381404 3.850995 -3.929146 95.568424 1.948099 -5.258659 21.454550 0.003089 0.000001 168.588098 27.394007 -168.821731 -123.840305 -5.074435 0.271298 69.024423 0.437341 0.786116 21.454553 -0.003104 -0.000020 16.580581 -1.128532 1.500569 23.123310 -2.533883 2.745962 22.805278 -2.517138 2.761227 -6.161562 -33.185485 -7.076860 -21.146218 19.516598 -23.074355 58.080076 -87.028098 120.336076 -55.738957 20.636370 7.631678 -93.961437 -3.652753 2.736507 -26.692190 -18.302522 61.419137 121.889275 76.080056 -57.581780 -11.036155 -40.959285 -43.756582 -38.896548 14.903346 -1.450693 3.948992 1.686005 -26.213858 
36.184910 45.177349 228.148697 106.744990 -7.855371 96.562558 91.036859 2.441409 159.055790 -117.090397 3.926580 -4.267349 95.784558 2.314445 -4.091273 21.454553 0.003100 0.000000 170.421717 25.849001 -167.898098 -121.092806 -5.123429 1.729188 70.318327 -0.420378 1.412273 21.454558 -0.003114 -0.000022 16.481859 -1.599838 1.318768 22.926467 -3.428963 2.295324 22.608041 -3.414917 2.316019 -6.602950 -35.690098 -6.397204 -21.288699 20.831201 -23.720533 51.400841 -86.567095 127.007668 -56.621210 19.016106 10.016073 -92.028616 -4.535089 2.712294 -26.128551 -19.915956 60.038620 131.209505 75.779323 -48.199019 -7.650497 -46.636767 -48.194460 -41.914009 15.318489 -1.558156 2.241768 -2.151685 -21.549073 
37.018581 46.145168 228.710297 106.119597 -8.105070 96.848982 92.157195 2.773290 158.385844 -116.315594 3.874538 -4.351723 96.029161 2.511065 -2.836111 21.454551 0.003093 -0.000001 172.638263 23.811793 -166.573110 -118.064997 -5.120303 4.146573 73.254544 -1.780881 2.748791 21.454553 -0.003104 -0.000016 16.282146 -2.061183 1.063766 22.535012 -4.289787 1.706659 22.216107 -4.279295 1.732586 -7.196982 -37.452376 -5.810882 -21.623395 21.417882 -24.097275 53.139186 -86.119649 125.299615 -57.011671 18.117299 12.301701 -89.488189 -5.817010 2.689267 -26.315932 -21.282357 58.007902 139.773729 75.725337 -39.531878 -3.157153 -52.124667 -52.296802 -43.412105 15.961587 -1.642467 1.479005 -8.757398 -18.192011 
37.936409 47.553730 229.088501 105.851417 -8.943678 96.551820 93.010846 3.009589 157.626737 -114.823007 3.704127 -4.451323 95.623919 2.677712 -1.914643 21.454550 0.003099 0.000000 173.352728 22.179200 -166.008076 -114.857595 -5.141687 6.900139 75.310861 -3.351550 4.306982 21.454555 -0.003111 -0.000019 15.978977 -2.598595 0.888870 21.939037 -5.318272 1.269669 21.619540 -5.310383 1.301867 -8.109100 -38.678859 -5.611637 -22.052891 21.510875 -24.671302 57.977091 -85.836278 120.504030 -57.125814 18.324513 13.438374 -87.039867 -7.088955 2.670030 -25.455768 -21.634329 56.073763 147.942403 76.339774 -31.201612 0.437455 -56.792070 -54.790408 -43.477501 16.201977 -1.660124 1.873306 -15.991064 -17.776018 
38.961529 49.445839 229.373306 105.774994 -9.744178 95.686948 94.407647 3.157389 156.832372 -112.536205 3.518876 -4.575081 95.070421 2.858608 -1.106059 21.454557 0.003091 0.000001 173.378833 21.255393 -166.486640 -111.406089 -5.079791 9.096848 76.992269 -4.414598 6.421115 21.454553 -0.003107 -0.000022 15.682555 -3.127899 0.751293 21.359552 -6.340393 0.912551 21.039375 -6.334637 0.950990 -8.582066 -39.608878 -5.480629 -22.794964 21.282205 -25.042638 66.417627 -85.600650 112.125383 -56.843758 19.608913 13.980242 -84.208241 -8.465289 2.641796 -24.890534 -21.045790 54.593678 152.478577 76.840926 -26.563816 2.391467 -59.936344 -54.801548 -42.498861 15.401897 -1.579890 4.181196 -20.631988 -17.892160 
39.903339 51.708210 229.582901 105.322111 -10.567640 94.671101 96.080114 3.310595 156.767608 -109.608294 3.225988 -4.664013 94.621459 3.006713 -0.403578 21.454553 0.003087 -0.000001 173.098591 20.213381 -167.921895 -107.571197 -4.822902 10.047436 78.249577 -4.809437 7.826010 21.454557 -0.003107 -0.000019 15.336363 -3.523384 0.678446 20.677351 -7.110951 0.716080 20.356602 -7.106374 0.759243 -9.320391 -39.937253 -5.190417 -22.887295 21.282593 -25.127460 73.172766 -85.468233 105.414278 -56.875279 21.510404 14.472706 -80.803016 -9.958147 2.597680 -24.036892 -20.914835 53.036392 154.841918 76.805928 -24.163792 0.724817 -60.807337 -54.126698 -40.803495 14.928031 -1.502362 6.137411 -21.541344 -18.850292 
40.765949 54.326328 229.846603 104.389312 -10.990690 93.676878 98.448400 3.375302 157.363392 -106.154595 2.858303 -4.775752 93.946383 3.172311 0.231256 21.454550 0.003087 -0.000001 173.357564 18.935383 -169.763355 -102.985613 -4.373398 10.170295 79.073776 -4.938351 7.990875 21.454562 -0.003111 -0.000019 15.047038 -3.761796 0.618588 20.106139 -7.573516 0.573342 19.785021 -7.569794 0.619353 -10.740868 -39.694457 -4.356143 -22.429141 21.434322 -24.680579 79.442661 -85.228207 99.192652 -56.842829 23.484922 14.945403 -77.136543 -11.348671 2.536885 -22.782198 -20.254846 51.909243 155.171079 76.343073 -23.853881 -5.121340 -59.763527 -51.311680 -38.913893 15.410355 -1.484129 8.056223 -22.221746 -21.219885 
41.542049 57.222939 230.107498 103.164407 -11.345494 92.703166 101.038620 3.271294 158.501097 -102.250097 2.313732 -4.832360 92.656755 3.308086 0.763984 21.454555 0.003099 0.000003 173.788809 17.635507 -171.818791 -97.854734 -3.711987 9.562959 79.372078 -4.717784 7.386681 21.454558 -0.003106 -0.000025 14.697259 -3.889978 0.524032 19.413602 -7.812393 0.386651 19.092271 -7.809780 0.434127 -11.628573 -38.974214 -3.572047 -22.514206 21.083385 -23.868830 86.568263 -84.589086 92.151294 -56.334850 25.115903 16.182506 -73.075135 -12.761972 2.463569 -20.977802 -19.799778 50.347414 154.936284 76.154751 -24.102810 -13.482084 -57.838185 -45.590352 -36.626541 15.423518 -1.427950 9.630278 -20.867883 -24.826363 
42.248241 60.252689 230.339096 101.607390 -11.481744 91.802264 103.956750 3.043106 160.179752 -97.986877 1.641419 -4.858679 91.294009 3.422865 1.206929 21.454551 0.003090 -0.000000 174.585974 16.067897 -173.677463 -92.317643 -2.950356 9.065139 79.315968 -4.635991 6.466642 21.454550 -0.003111 -0.000019 14.315284 -3.918027 0.412575 18.655202 -7.850994 0.186228 18.333828 -7.849600 0.233954 -12.631056 -37.970340 -2.615811 -22.343053 21.229521 -22.977205 90.805125 -83.881758 87.993962 -55.884229 26.165811 17.987440 -68.223269 -13.548990 2.318608 -19.621472 -19.857361 48.178570 153.620599 75.688181 -25.467001 -22.107582 -54.751565 -39.229827 -34.309505 15.517104 -1.379822 10.433593 -18.629010 -29.087580 
42.944229 63.388260 230.577896 99.985199 -11.335619 91.032795 107.341641 2.853902 162.416325 -93.298731 0.521214 -4.885154 89.861643 3.552299 1.589537 21.454553 0.003099 -0.000002 175.596732 14.593712 -175.604109 -86.569882 -1.686131 8.966279 77.827396 -4.804782 5.490975 21.454560 -0.003109 -0.000012 13.966913 -3.869274 0.293585 17.962663 -7.736922 -0.019304 17.641385 -7.736764 0.027719 -13.830163 -36.567836 -1.510188 -21.974800 21.058629 -21.674623 94.200876 -83.086840 84.678752 -55.742991 26.686456 20.474769 -62.723785 -14.033048 2.135400 -18.720848 -19.584599 45.775446 150.602106 75.944334 -28.523020 -30.546375 -51.816687 -32.296628 -32.496985 15.740316 -1.354380 10.445015 -16.497181 -32.331537 
43.663521 66.558983 230.710007 98.501013 -11.162121 90.205496 110.904841 2.605100 164.976212 -88.136461 -1.132277 -5.027350 88.437836 3.786986 1.983372 21.454553 0.003092 -0.000000 176.206299 13.306703 -177.235008 -81.199775 -0.537083 9.540383 75.220580 -5.152491 5.538625 21.454562 -0.003101 -0.000017 13.610490 -3.823647 0.247461 17.249253 -7.641162 -0.080154 16.928050 -7.641384 -0.033712 -14.859341 -34.695104 -0.824132 -21.515863 20.457603 -20.352405 95.395811 -81.823986 83.597260 -55.997955 27.091191 23.230947 -56.298907 -14.011581 1.897063 -17.283157 -19.519511 43.359810 147.097604 76.506732 -32.049003 -37.932688 -48.821970 -25.875905 -32.382053 16.080371 -1.373772 11.082770 -15.198192 -34.596356 
44.360680 69.700447 230.686005 97.075498 -10.797951 89.419245 114.739788 2.391305 167.380370 -82.491794 -2.622841 -5.370258 87.042387 4.153899 2.325294 21.454551 0.003088 -0.000001 176.575048 12.136906 -178.244496 -76.416177 0.283987 10.013929 73.128622 -5.182330 6.431923 21.454558 -0.003113 -0.000023 13.315671 -3.750094 0.244735 16.656009 -7.496095 -0.055012 16.334925 -7.496161 -0.009460 -16.232862 -32.427040 -0.212838 -20.638509 19.699869 -18.889385 95.536308 -80.604661 83.565117 -57.250321 27.319008 25.148999 -49.543918 -13.045439 1.605619 -16.371105 -18.450368 42.140208 143.086507 77.128880 -36.076793 -44.119300 -45.078712 -22.418399 -34.457990 16.724662 -1.461027 12.054816 -16.109071 -36.984156 
